<svg width="41" height="45" viewBox="0 0 41 45" fill="none" xmlns="http://www.w3.org/2000/svg">
<g clip-path="url(#clip0_326_648)">
<path d="M11.0457 29.7681C10.8099 29.7681 10.5885 29.6769 10.4221 29.5105C10.2557 29.3441 10.1646 29.1227 10.1646 28.8869V27.2822C10.1646 26.1478 10.5017 25.0496 11.1355 24.1091C11.7692 23.1671 12.6605 22.4436 13.711 22.0153L14.6125 21.6478L14.0004 20.8911C13.3493 20.0851 12.8949 19.1214 12.6866 18.1057C12.4797 17.0899 12.5202 16.0264 12.8038 15.028C13.0874 14.0311 13.6141 13.1051 14.3245 12.3497C15.035 11.5944 15.9292 11.0157 16.9073 10.6727C17.599 10.4311 18.321 10.3081 19.0546 10.3081C19.3613 10.3081 19.6695 10.3298 19.9734 10.3732C20.9993 10.5194 21.989 10.9158 22.8326 11.5178C23.6761 12.1211 24.3721 12.9271 24.8438 13.8502C25.3155 14.7734 25.5615 15.8094 25.5543 16.8469C25.5514 18.3169 25.0391 19.7509 24.1117 20.8882L23.488 21.6522L24.4039 22.0182C25.2605 22.3597 26.0289 22.9124 26.6264 23.6128C26.6959 23.6967 26.7509 23.798 26.7856 23.9094C26.8203 24.0208 26.8319 24.1351 26.8218 24.2509C26.8117 24.3681 26.7784 24.478 26.7234 24.5822C26.6684 24.685 26.5961 24.7747 26.5063 24.8499C26.4152 24.9251 26.3139 24.9816 26.2025 25.0163C26.1186 25.0424 26.0303 25.0554 25.9406 25.0554C25.9131 25.0554 25.8871 25.0554 25.8596 25.051C25.7438 25.0409 25.6324 25.0076 25.5297 24.9526C25.4269 24.8977 25.3358 24.8253 25.262 24.7356C24.9002 24.3001 24.4372 23.9441 23.9236 23.7054C23.4215 23.4724 22.8629 23.3494 22.3102 23.3494H15.8597C14.8092 23.3494 13.821 23.7589 13.0787 24.5012C12.3364 25.2435 11.9269 26.2317 11.9269 27.2822V28.8869C11.9269 29.1227 11.8358 29.3441 11.6694 29.5105C11.503 29.6769 11.2816 29.7681 11.0457 29.7681ZM19.0719 12.1153C17.8073 12.1153 16.6179 12.6073 15.7223 13.503C14.8281 14.3972 14.3346 15.5866 14.3346 16.8512C14.3346 17.7903 14.611 18.7004 15.1334 19.4817C15.6557 20.2631 16.3908 20.8665 17.2589 21.2253C17.8363 21.4641 18.4454 21.5856 19.0719 21.5856C19.3816 21.5856 19.6927 21.5552 19.9965 21.4944C20.9182 21.3107 21.7575 20.8636 22.4216 20.198C23.0858 19.5338 23.5343 18.6946 23.7181 17.7729C23.9018 16.8512 23.8078 15.9049 23.449 15.0367C23.0887 14.1686 22.4867 13.4335 21.7039 12.9112C20.9226 12.3888 20.0125 12.1124 19.0719 12.1124V12.1153Z" fill="white"/>
<path d="M19.0704 44.2766C19.0024 44.2766 18.9359 44.2664 18.8722 44.2462L18.8462 44.2389C13.6198 42.7949 8.93023 39.6261 5.64278 35.3142C2.35532 31.0023 0.5394 25.6414 0.532166 20.2197V8.02335C0.532166 7.84103 0.587149 7.6674 0.692776 7.51837C0.796957 7.36933 0.943098 7.25792 1.11528 7.1957L18.7724 0.775601C18.8679 0.740874 18.9677 0.723511 19.0704 0.723511C19.1732 0.723511 19.2744 0.740874 19.3699 0.775601L37.0256 7.19425C37.1978 7.25647 37.3439 7.36788 37.4481 7.51692C37.5523 7.66595 37.6072 7.84103 37.6087 8.02335V20.8621C37.6087 21.0979 37.5175 21.3193 37.3511 21.4857C37.1847 21.6521 36.9634 21.7433 36.7275 21.7433C36.4916 21.7433 36.2703 21.6521 36.1039 21.4857C35.9375 21.3193 35.8463 21.0979 35.8463 20.8621V20.5814C35.8535 20.4541 35.8535 20.3253 35.8463 20.1965V8.63975L19.0704 2.53509L2.29599 8.63975V20.2197C2.30178 25.1754 3.93683 30.0922 6.90162 34.064C9.86641 38.0359 14.1146 41.0021 18.8635 42.4187L19.0777 42.4824L19.2904 42.4143C19.8764 42.2277 20.458 42.015 21.0281 41.7791L22.0757 41.3769C22.1828 41.3234 22.2986 41.2915 22.4187 41.2843C22.436 41.2843 22.4534 41.2828 22.4707 41.2828C22.5735 41.2828 22.6748 41.3002 22.7703 41.3349C22.8831 41.3754 22.9844 41.4377 23.0727 41.5201C23.1609 41.6026 23.2289 41.6996 23.2781 41.8095C23.3259 41.9195 23.3519 42.0367 23.3519 42.1568C23.3519 42.2769 23.3288 42.3941 23.2825 42.5055C23.2347 42.6169 23.1682 42.7153 23.0814 42.7978C22.9945 42.8817 22.8933 42.9454 22.7804 42.9873L22.7572 42.996L22.7341 43.0061C21.6286 43.5097 20.474 43.9221 19.3005 44.2332L19.2672 44.2433C19.2035 44.2635 19.1355 44.2737 19.069 44.2737L19.0704 44.2766Z" fill="white"/>
<path d="M25.2243 39.6493C25.1302 39.6493 25.0362 39.6334 24.9465 39.6044C24.7815 39.5494 24.6383 39.4482 24.5312 39.3107C24.4256 39.1732 24.3634 39.0097 24.3518 38.8375C24.3402 38.6654 24.3807 38.4946 24.4675 38.3441L29.0153 30.493C29.0732 30.3917 29.1499 30.3064 29.241 30.2355C29.3336 30.1646 29.4364 30.1139 29.5492 30.0835C29.6245 30.0633 29.6997 30.0531 29.7778 30.0531C29.8155 30.0531 29.8545 30.056 29.8921 30.0604C30.0065 30.0748 30.1164 30.1125 30.2163 30.1703L33.3778 31.9892L36.4251 26.7295L33.8192 27.4284C33.7454 27.4486 33.6687 27.4588 33.592 27.4588C33.1926 27.4588 32.841 27.1911 32.7383 26.8091C32.6775 26.5848 32.7108 26.349 32.828 26.1449C32.9466 25.9395 33.1362 25.7933 33.3634 25.7326L37.3237 24.672L37.328 24.6879L38.0225 24.5012C38.0963 24.481 38.173 24.4708 38.2497 24.4708C38.6491 24.4708 39.0007 24.7385 39.1034 25.1205L40.3463 29.7623C40.4071 29.9866 40.3753 30.2224 40.2566 30.4265C40.138 30.6319 39.9484 30.7781 39.7212 30.8388C39.6474 30.8591 39.5708 30.8692 39.4941 30.8692C39.0947 30.8692 38.7431 30.6015 38.6404 30.2195L37.9444 27.6237L34.4674 33.6271C34.3097 33.8977 34.0174 34.067 33.7048 34.067C33.5515 34.067 33.401 34.0265 33.2664 33.9498L30.1048 32.131L26.0085 39.2036C25.8754 39.4163 25.6873 39.5596 25.4602 39.6203C25.3806 39.642 25.3024 39.6522 25.2243 39.6522V39.6493Z" fill="white"/>
</g>
<defs>
<clipPath id="clip0_326_648">
<rect width="39.8431" height="43.5531" fill="white" transform="translate(0.532166 0.723511)"/>
</clipPath>
</defs>
</svg>
