<svg xmlns="http://www.w3.org/2000/svg" xmlns:xlink="http://www.w3.org/1999/xlink" width="171" height="29" viewBox="0 0 171 29">
  <defs>
    <clipPath id="clip-path">
      <rect id="Rectangle_1" data-name="Rectangle 1" width="26.452" height="28.203" transform="translate(0.532 0.724)" fill="#fff"/>
    </clipPath>
    <clipPath id="clip-Custom_Size_1">
      <rect width="171" height="29"/>
    </clipPath>
  </defs>
  <g id="Custom_Size_1" data-name="Custom Size – 1" clip-path="url(#clip-Custom_Size_1)">
    <g id="BBD-icon" transform="translate(-0.398 -0.724)" clip-path="url(#clip-path)">
      <path id="Path_17" data-name="Path 17" d="M10.75,22.91a.589.589,0,0,1-.414-.167.56.56,0,0,1-.171-.4V21.3a3.6,3.6,0,0,1,.645-2.055,3.751,3.751,0,0,1,1.71-1.356l.6-.238-.406-.49a4.193,4.193,0,0,1-.872-1.8,4.131,4.131,0,0,1,.078-1.993,4.21,4.21,0,0,1,1.01-1.734,4.343,4.343,0,0,1,1.715-1.086,4.409,4.409,0,0,1,3.934.547A4.266,4.266,0,0,1,19.91,12.6a4.124,4.124,0,0,1-.486,4.558l-.414.495.608.237a3.8,3.8,0,0,1,1.476,1.033.563.563,0,0,1,.13.413.547.547,0,0,1-.065.215.586.586,0,0,1-.144.173.587.587,0,0,1-.376.133.34.34,0,0,1-.054,0,.577.577,0,0,1-.219-.064.583.583,0,0,1-.178-.141,2.564,2.564,0,0,0-.889-.667,2.618,2.618,0,0,0-1.071-.231H13.946A2.628,2.628,0,0,0,12.1,19.5a2.5,2.5,0,0,0-.765,1.8v1.039a.56.56,0,0,1-.171.4A.589.589,0,0,1,10.75,22.91Zm5.329-11.431a3.164,3.164,0,0,0-2.224.9,3.007,3.007,0,0,0-.391,3.872,3.116,3.116,0,0,0,1.411,1.129,3.221,3.221,0,0,0,1.817.174,3.156,3.156,0,0,0,1.61-.84,3.038,3.038,0,0,0,.861-1.57,2.99,2.99,0,0,0-.179-1.772,3.074,3.074,0,0,0-1.159-1.376,3.19,3.19,0,0,0-1.747-.517Z" transform="translate(-3.237 -3.378)" fill="#fff"/>
      <path id="Path_18" data-name="Path 18" d="M12.84,28.927a.444.444,0,0,1-.132-.02l-.017,0a16.69,16.69,0,0,1-8.766-5.779A15.993,15.993,0,0,1,.532,13.349v-7.9a.551.551,0,0,1,.107-.327.579.579,0,0,1,.28-.209L12.642.757a.6.6,0,0,1,.4,0L24.76,4.914a.579.579,0,0,1,.281.209.568.568,0,0,1,.107.328v8.314a.56.56,0,0,1-.171.4.6.6,0,0,1-.828,0,.56.56,0,0,1-.171-.4v-.182a2.169,2.169,0,0,0,0-.249V5.85L12.84,1.9,1.7,5.85v7.5a14.87,14.87,0,0,0,3.058,8.965,15.511,15.511,0,0,0,7.941,5.41l.142.041.141-.044c.389-.121.775-.259,1.154-.411l.7-.26a.6.6,0,0,1,.228-.06H15.1a.6.6,0,0,1,.2.034.581.581,0,0,1,.337.307.551.551,0,0,1,.049.225.572.572,0,0,1-.046.226.566.566,0,0,1-.134.189.575.575,0,0,1-.2.123l-.015.006-.015.007a14.679,14.679,0,0,1-2.28.795l-.022.007a.449.449,0,0,1-.132.02Z" transform="translate(0 0)" fill="#fff"/>
      <path id="Path_19" data-name="Path 19" d="M24.93,34.3a.615.615,0,0,1-.184-.029.581.581,0,0,1-.276-.19.55.55,0,0,1-.042-.626l3.019-5.084a.572.572,0,0,1,.15-.167.6.6,0,0,1,.356-.118.678.678,0,0,1,.076,0,.582.582,0,0,1,.215.071l2.1,1.178,2.023-3.406-1.73.453a.591.591,0,0,1-.718-.4.551.551,0,0,1,.06-.43.579.579,0,0,1,.355-.267l2.629-.687,0,.01.461-.121a.591.591,0,0,1,.718.4L34.97,27.9a.547.547,0,0,1-.06.43.591.591,0,0,1-1.073-.134l-.462-1.681L31.067,30.4a.592.592,0,0,1-.506.285.6.6,0,0,1-.291-.076l-2.1-1.178-2.72,4.58a.614.614,0,0,1-.521.291Z" transform="translate(-8.005 -8.369)" fill="#fff"/>
    </g>
    <text id="Better_By_Default" data-name="Better By Default" transform="translate(33 19)" fill="#fff" font-size="18" font-family="HelveticaNeue, Helvetica Neue"><tspan x="0" y="0">Better By Default</tspan></text>
  </g>
</svg>
