<svg width="169" height="52" viewBox="0 0 169 52" fill="none" xmlns="http://www.w3.org/2000/svg">
<g clip-path="url(#clip0_4266_10733)">
<path opacity="0.54" d="M31.9431 24.382C31.677 24.0674 27.0577 18.6923 26.718 18.2798C28.6699 19.9132 30.4952 21.6924 32.178 23.602C32.8759 21.0656 32.9093 18.3923 32.275 15.8393C31.5781 17.1562 30.4412 18.1867 29.0623 18.7513C28.2473 17.4862 27.8726 15.9875 27.9962 14.4877C28.1198 12.988 28.7349 11.5709 29.7461 10.4564C27.715 7.70481 24.8192 5.71447 21.5226 4.80413C18.2259 3.89378 14.7191 4.11611 11.5639 5.4355C8.40857 6.75488 5.78735 9.09499 4.11998 12.081C2.45262 15.0671 1.83556 18.5263 2.36768 21.9047C2.89981 25.2831 4.5503 28.3851 7.05482 30.7141C9.55934 33.043 12.773 34.4641 16.1811 34.7497C19.5892 35.0353 22.9945 34.1689 25.8517 32.2893C28.7089 30.4097 30.8527 27.6256 31.9396 24.3829L31.9431 24.382ZM18.2836 7.14918C19.3736 7.20977 20.4374 7.50606 21.4018 8.0176C22.3662 8.52914 23.2082 9.24377 23.8696 10.1122C24.5311 10.9806 24.9964 11.9822 25.2333 13.0478C25.4702 14.1135 25.4732 15.2178 25.242 16.2847C24.1519 16.2244 23.0878 15.9283 22.1231 15.4168C21.1585 14.9053 20.3164 14.1906 19.6549 13.322C18.9933 12.4534 18.5281 11.4516 18.2914 10.3857C18.0546 9.31985 18.052 8.21617 18.2836 7.14918ZM14.4035 19.7557C15.1642 19.0492 16.0692 18.5163 17.0559 18.1935C18.0427 17.8708 19.0877 17.766 20.1188 17.8864C21.15 18.0067 22.1428 18.3494 23.0286 18.8908C23.9145 19.4321 24.6723 20.1592 25.2498 21.0219C24.4891 21.7281 23.5842 22.2608 22.5975 22.5834C21.6109 22.906 20.5661 23.0107 19.5351 22.8903C18.5041 22.7699 17.5114 22.4274 16.6257 21.8862C15.7399 21.345 14.982 20.6181 14.4044 19.7557H14.4035ZM18.5202 28.301C19.0975 27.3207 19.8807 26.4773 20.8156 25.829C21.7505 25.1806 22.815 24.7429 23.9355 24.5459C25.056 24.3489 26.2059 24.3973 27.3059 24.6879C28.4059 24.9785 29.4298 25.5042 30.3068 26.2288C29.7296 27.2093 28.9465 28.0528 28.0116 28.7012C27.0767 29.3496 26.0122 29.7875 24.8916 29.9845C23.7711 30.1815 22.6211 30.133 21.5211 29.8423C20.4211 29.5517 19.3972 29.0258 18.5202 28.301Z" fill="#F7941E"/>
<path opacity="0.54" d="M35.7659 41.8714C36.503 39.8048 36.7866 37.6038 36.5976 35.4179C36.4085 33.232 35.7512 31.1124 34.6703 29.203C33.5894 27.2937 32.1102 25.6394 30.3332 24.3525C28.5562 23.0655 26.523 22.1762 24.3718 21.7448C23.2819 22.4599 22.0206 22.8705 20.7186 22.934C19.4166 22.9976 18.1213 22.7117 16.967 22.1061C14.4705 22.8602 12.2086 24.241 10.3968 26.1169C8.58507 27.9928 7.28383 30.3014 6.61704 32.8226C5.95026 35.3439 5.94014 37.9939 6.58766 40.5202C7.23518 43.0465 8.51877 45.3649 10.3161 47.2546C12.1135 49.1442 14.3648 50.5422 16.8555 51.3154C19.3462 52.0885 21.9934 52.211 24.5449 51.6712C27.0964 51.1314 29.4671 49.9473 31.4314 48.2317C33.3956 46.5161 34.8878 44.3262 35.7659 41.8705V41.8714ZM34.3887 34.613C33.7388 35.4999 32.9043 36.2353 31.9427 36.7685C30.981 37.3017 29.9152 37.62 28.8187 37.7014C27.7222 37.7829 26.621 37.6256 25.5912 37.2404C24.5613 36.8552 23.6273 36.2512 22.8534 35.4701C23.5032 34.5831 24.3376 33.8475 25.2992 33.3141C26.2608 32.7808 27.3266 32.4623 28.4232 32.3808C29.5198 32.2992 30.621 32.4565 31.6509 32.8417C32.6808 33.2269 33.6149 33.8318 34.3887 34.613ZM30.3041 26.2298C29.7269 27.2102 28.9438 28.0538 28.0089 28.7022C27.074 29.3505 26.0095 29.7884 24.8889 29.9854C23.7683 30.1824 22.6184 30.1339 21.5184 29.8432C20.4183 29.5526 19.3945 29.0267 18.5175 28.3019C19.0948 27.3217 19.8779 26.4784 20.8128 25.8302C21.7476 25.182 22.812 24.7443 23.9324 24.5473C25.0528 24.3503 26.2026 24.3987 27.3025 24.6892C28.4024 24.9796 29.4262 25.5053 30.3033 26.2298H30.3041Z" fill="#FBB040"/>
<path opacity="0.54" d="M27.8711 37.7131C26.9286 37.687 26.0004 37.4754 25.1397 37.0903C24.279 36.7053 23.5026 36.1545 22.8549 35.4692C23.6744 34.3345 24.7939 33.4505 26.0877 32.9164C27.3815 32.3823 28.7986 32.2192 30.1799 32.4455C30.6402 30.4121 30.6774 28.3058 30.2891 26.2575C29.709 27.2326 28.9247 28.0708 27.9902 28.7143C27.0556 29.3578 25.9928 29.7915 24.8749 29.9857C23.7569 30.1798 22.6102 30.1298 21.5133 29.839C20.4165 29.5482 19.3956 29.0236 18.5207 28.3011C19.0967 27.3236 19.8773 26.4824 20.809 25.8351C21.7406 25.1877 22.8013 24.7495 23.9183 24.5506C25.0352 24.3517 26.1819 24.3968 27.2798 24.6827C28.3777 24.9687 29.4007 25.4887 30.2787 26.2072C30.2441 26.0287 30.2111 25.8501 30.1704 25.6725C29.3909 22.2508 27.4575 19.2017 24.695 17.0374C21.9325 14.8731 18.5093 13.7255 15.0005 13.7874C11.4917 13.8494 8.11111 15.1171 5.42675 17.3775C2.74238 19.638 0.917792 22.7535 0.259543 26.2005C-0.398706 29.6476 0.149481 33.2162 1.81202 36.3067C3.47456 39.3973 6.15014 41.8214 9.38922 43.172C12.6283 44.5225 16.2335 44.717 19.5991 43.723C22.9647 42.7289 25.8856 40.6067 27.8711 37.7131ZM14.404 19.7549C15.1647 19.0484 16.0697 18.5154 17.0564 18.1927C18.0431 17.8699 19.0881 17.7651 20.1193 17.8855C21.1505 18.0059 22.1432 18.3486 23.0291 18.8899C23.9149 19.4312 24.6728 20.1584 25.2503 21.0211C24.4896 21.7274 23.5847 22.2604 22.598 22.5831C21.6113 22.9058 20.5664 23.0106 19.5353 22.8904C18.5042 22.7701 17.5114 22.4275 16.6255 21.8863C15.7396 21.3452 14.9817 20.6174 14.404 19.7549Z" fill="#EFAC5E"/>
<path opacity="0.54" d="M18.521 28.301C19.0983 27.3207 19.8815 26.4772 20.8164 25.8289C21.7513 25.1806 22.8158 24.7429 23.9363 24.5459C25.0568 24.3489 26.2068 24.3973 27.3067 24.6879C28.4067 24.9784 29.4306 25.5042 30.3077 26.2288C29.5099 27.5936 28.3188 28.6859 26.8902 29.3628C25.4616 30.0398 23.862 30.2699 22.3005 30.0231C24.3646 30.5803 26.5228 30.6977 28.6352 30.3678C30.7476 30.0378 32.7671 29.2679 34.563 28.1078C32.7681 24.9011 30.7497 23.1678 26.7197 18.2789C29.9402 21.0405 32.8603 24.1343 35.4314 27.5089C38.0796 25.5276 40.0133 22.7403 40.9417 19.566C41.8701 16.3916 41.7431 13.0017 40.5799 9.90564C39.4167 6.80961 37.28 4.17475 34.491 2.39709C31.702 0.619435 28.4114 -0.204991 25.1137 0.0477211C21.816 0.300433 18.6895 1.61663 16.2039 3.7985C13.7183 5.98036 12.0081 8.91001 11.3302 12.1471C10.6523 15.3843 11.0433 18.754 12.4446 21.7498C13.8459 24.7456 16.1816 27.2057 19.1008 28.7604C18.8996 28.6176 18.706 28.4642 18.521 28.301ZM38.5895 14.261C39.0164 15.1919 39.2362 16.2043 39.2339 17.2283C39.2316 18.2524 39.0071 19.2638 38.5761 20.1927C38.145 21.1216 37.5176 21.946 36.7371 22.6089C35.9566 23.2719 35.0416 23.7576 34.0551 24.0327C33.6277 23.1017 33.4074 22.089 33.4094 21.0645C33.4114 20.04 33.6357 19.0282 34.0668 18.0989C34.4979 17.1695 35.1255 16.3448 35.9064 15.6816C36.6872 15.0184 37.6027 14.5325 38.5895 14.2576V14.261ZM32.0488 8.8383C32.5818 9.66581 32.9289 10.5991 33.0663 11.5737C33.2037 12.5484 33.128 13.5413 32.8445 14.4839C32.561 15.4264 32.0765 16.2963 31.4243 17.0335C30.772 17.7707 29.9676 18.3576 29.0666 18.7538C28.5328 17.9263 28.1851 16.9927 28.0473 16.0176C27.9095 15.0425 27.9849 14.0491 28.2685 13.1061C28.552 12.163 29.0369 11.2927 29.6895 10.5553C30.3422 9.81783 31.1472 9.23085 32.0488 8.83483V8.8383ZM18.2844 7.15177C19.3744 7.21236 20.4382 7.50864 21.4026 8.02018C22.367 8.53172 23.209 9.24634 23.8705 10.1148C24.5319 10.9832 24.9972 11.9848 25.2341 13.0504C25.4711 14.116 25.474 15.2204 25.2429 16.2873C24.1525 16.2269 23.0882 15.9307 22.1234 15.419C21.1586 14.9073 20.3164 14.1923 19.6549 13.3234C18.9933 12.4545 18.5282 11.4525 18.2916 10.3863C18.055 9.32022 18.0525 8.21545 18.2844 7.14829V7.15177ZM14.4043 19.7583C15.1651 19.0518 16.07 18.5188 17.0567 18.1961C18.0435 17.8734 19.0885 17.7686 20.1196 17.8889C21.1508 18.0093 22.1436 18.352 23.0294 18.8933C23.9153 19.4347 24.6731 20.1618 25.2507 21.0245C24.4897 21.7306 23.5845 22.2633 22.5977 22.5857C21.6108 22.9081 20.5657 23.0125 19.5346 22.8918C18.5035 22.7711 17.5108 22.4281 16.6251 21.8865C15.7394 21.3449 14.9817 20.6177 14.4043 19.7548V19.7583Z" fill="#FFDE17"/>
<path opacity="0.54" d="M47.0455 10.0014C45.6401 8.23912 43.862 6.8097 41.8389 5.81571C39.8158 4.82172 37.5978 4.2878 35.344 4.25227C33.0901 4.21673 30.8564 4.68044 28.8029 5.61015C26.7495 6.53986 24.9273 7.9125 23.467 9.62963C24.2849 10.5091 24.8744 11.576 25.1839 12.7365C25.4933 13.8969 25.5133 15.1157 25.2419 16.2856C23.5577 16.2282 21.9481 15.5767 20.698 14.4466C20.3079 15.5538 20.0462 16.7021 19.918 17.869C20.99 17.9459 22.0295 18.2707 22.9546 18.8179C23.8797 19.365 24.6651 20.1195 25.2488 21.022C24.5818 21.6654 23.7912 22.1669 22.9248 22.4961C22.0585 22.8253 21.1343 22.9754 20.2083 22.9373C20.4192 23.857 20.7154 24.755 21.0932 25.6196C22.4967 24.7382 24.1427 24.3224 25.7965 24.4313C27.4502 24.5402 29.0274 25.1684 30.3032 26.2263C29.666 27.3373 28.7616 28.2717 27.6719 28.9449C26.5823 29.618 25.3419 30.0086 24.0632 30.0812C24.9802 31.044 26.0195 31.8823 27.1546 32.5746C28.432 32.2477 29.773 32.2636 31.0423 32.6207C32.3115 32.9779 33.4641 33.6636 34.3835 34.6087C34.3454 34.6642 34.3046 34.717 34.2648 34.7708C35.0812 34.8152 35.9 34.7943 36.7131 34.7084C35.9972 27.7586 31.3146 23.8664 26.7109 18.2764C29.9579 21.0597 32.8984 24.1818 35.4824 27.5896C36.9774 29.622 38.0565 31.9296 38.6579 34.3799C41.1565 33.7791 43.4633 32.558 45.365 30.8295C47.2666 29.1011 48.7018 26.9211 49.5379 24.4911C50.374 22.0611 50.5839 19.4595 50.1483 16.9269C49.7126 14.3943 48.6455 12.0124 47.0455 10.0014ZM29.0691 18.7548C28.536 17.9273 28.1887 16.994 28.0512 16.0193C27.9138 15.0446 27.9894 14.0517 28.2729 13.1091C28.5564 12.1664 29.041 11.2965 29.6934 10.5594C30.3457 9.8222 31.1502 9.23532 32.0513 8.83923C32.5843 9.66673 32.9314 10.6 33.0688 11.5747C33.2062 12.5493 33.1305 13.5422 32.847 14.4848C32.5635 15.4274 32.079 16.2973 31.4267 17.0344C30.7745 17.7716 29.9701 18.3586 29.0691 18.7548ZM34.0576 24.0336C33.6308 23.1028 33.411 22.0904 33.4133 21.0663C33.4156 20.0423 33.64 19.0309 34.0711 18.102C34.5022 17.1731 35.1296 16.3487 35.9101 15.6858C36.6906 15.0228 37.6056 14.537 38.592 14.262C39.0182 15.1929 39.2374 16.2052 39.2345 17.229C39.2317 18.2528 39.0068 19.2639 38.5755 20.1924C38.1441 21.121 37.5165 21.9449 36.736 22.6075C35.9554 23.27 35.0405 23.7554 34.0542 24.0302L34.0576 24.0336ZM39.5696 32.7731C39.099 31.7131 38.8638 30.5636 38.8802 29.4039C38.8967 28.2443 39.1644 27.1019 39.6649 26.0557C40.1655 25.0095 40.8869 24.0842 41.7796 23.3437C42.6722 22.6032 43.7148 22.0651 44.8355 21.7664C45.3055 22.8264 45.5401 23.9757 45.5231 25.1352C45.5061 26.2946 45.238 27.4365 44.7371 28.4823C44.2363 29.5281 43.5146 30.4528 42.6219 31.1928C41.7292 31.9329 40.6867 32.4705 39.5662 32.7688L39.5696 32.7731Z" fill="#F9ED32"/>
<path opacity="0.54" d="M40.6796 14.1796C38.0905 13.5856 35.391 13.6806 32.8501 14.4552C32.5845 15.4105 32.106 16.2933 31.4505 17.0374C30.795 17.7814 29.9796 18.3673 29.0653 18.7513C28.6597 18.1599 28.3603 17.5024 28.1805 16.8082C26.8552 17.7901 25.6976 18.9801 24.7528 20.3321C24.9337 20.5516 25.0994 20.7832 25.2486 21.0254C24.7774 21.4908 24.2375 21.881 23.6478 22.1824C23.2061 23.0558 22.8497 23.9697 22.5835 24.9115C23.8716 24.4247 25.2661 24.2906 26.6233 24.5229C27.9805 24.7553 29.2511 25.3457 30.3038 26.2332C29.4815 27.6361 28.2449 28.7497 26.7638 29.4211C25.2828 30.0925 23.6302 30.2885 22.0332 29.9824C22.1356 31.7126 22.5328 33.4126 23.2075 35.0091C23.8941 34.2144 24.7375 33.57 25.6847 33.1164C26.6319 32.6628 27.6626 32.4097 28.7122 32.373C29.7618 32.3363 30.8077 32.5168 31.7843 32.9032C32.7609 33.2895 33.6471 33.8734 34.3875 34.6182C33.2055 36.2221 31.4448 37.3021 29.4794 37.6289C27.514 37.9558 25.4986 37.5038 23.861 36.3689C24.9645 38.4075 26.5188 40.1672 28.4055 41.514C30.2923 42.8608 32.4616 43.759 34.7481 44.1403C38.0588 38.0311 37.6367 31.0207 31.6402 24.0336C29.7526 21.8357 26.9602 18.5797 26.7149 18.2833C29.9611 21.0634 32.9013 24.182 35.4856 27.5861C40.0165 33.9448 39.6257 39.7792 37.7389 44.3396C41.4506 44.2244 44.9932 42.7612 47.7043 40.2236C50.4155 37.686 52.1095 34.2477 52.4696 30.5518C52.8298 26.8559 51.8314 23.1553 49.6611 20.1421C47.4909 17.1288 44.2974 15.0092 40.6778 14.1796H40.6796ZM34.053 24.0327C33.6263 23.1019 33.4066 22.0895 33.409 21.0655C33.4114 20.0415 33.6359 19.0302 34.0669 18.1013C34.4979 17.1724 35.1253 16.3481 35.9057 15.6851C36.6861 15.0221 37.6011 14.5363 38.5874 14.2611C39.0142 15.1919 39.2341 16.2043 39.2318 17.2284C39.2294 18.2524 39.005 19.2638 38.5739 20.1927C38.1429 21.1216 37.5155 21.946 36.735 22.609C35.9545 23.2719 35.0394 23.7577 34.053 24.0327ZM39.5659 32.7722C39.0952 31.7122 38.86 30.5627 38.8765 29.403C38.8929 28.2434 39.1607 27.101 39.6612 26.0548C40.1617 25.0086 40.8832 24.0833 41.7758 23.3428C42.6685 22.6023 43.7111 22.0642 44.8317 21.7655C45.3019 22.8254 45.5368 23.9745 45.5201 25.1338C45.5034 26.2932 45.2356 27.4351 44.7351 28.4809C44.2346 29.5268 43.5132 30.4517 42.6208 31.1919C41.7285 31.9321 40.6862 32.4701 39.5659 32.7687V32.7722Z" fill="#FBB040"/>
<g style="mix-blend-mode:multiply" opacity="0.54">
<path d="M35.1475 43.3551C39.7521 33.5349 33.4792 26.1674 31.6436 24.0285L29.5099 21.542C26.0519 21.9209 22.827 23.4689 20.3684 25.9299C17.9099 28.3909 16.3651 31.6174 15.9897 35.0758C15.6142 38.5341 16.4305 42.0169 18.3035 44.9482C20.1766 47.8795 22.9942 50.0836 26.2902 51.1958C28.2215 50.5587 30.0029 49.5349 31.5257 48.1869C33.0485 46.8389 34.2808 45.1949 35.1475 43.3551ZM18.5214 28.3011C19.0987 27.3208 19.8819 26.4773 20.8168 25.829C21.7517 25.1807 22.8162 24.743 23.9367 24.546C25.0572 24.349 26.2072 24.3974 27.3072 24.688C28.4071 24.9785 29.431 25.5043 30.3081 26.2289C29.7308 27.2094 28.9477 28.0529 28.0128 28.7013C27.0779 29.3497 26.0134 29.7875 24.8928 29.9845C23.7723 30.1815 22.6223 30.1331 21.5223 29.8424C20.4223 29.5518 19.3984 29.0259 18.5214 28.3011ZM34.3909 34.6122C33.741 35.4991 32.9064 36.2345 31.9448 36.7677C30.9832 37.3008 29.9174 37.6191 28.8209 37.7006C27.7244 37.7821 26.6232 37.6248 25.5934 37.2396C24.5635 36.8544 23.6295 36.2504 22.8556 35.4693C23.5054 34.5823 24.3399 33.8468 25.3016 33.3135C26.2632 32.7802 27.329 32.4619 28.4256 32.3804C29.5221 32.2989 30.6233 32.4563 31.6532 32.8416C32.6831 33.2269 33.6171 33.831 34.3909 34.6122Z" fill="#FBB040"/>
</g>
<g style="mix-blend-mode:multiply" opacity="0.54">
<path d="M44.406 29.1002C43.8927 30.0098 43.1985 30.8046 42.3662 31.4355C41.5338 32.0665 40.5811 32.5202 39.5666 32.7687C38.9713 31.4555 38.7451 30.005 38.9121 28.5729C39.0792 27.1408 39.6332 25.7812 40.5147 24.6403C39.3936 23.7749 38.1578 23.0693 36.8427 22.5438C36.0514 23.2633 35.0931 23.7739 34.0546 24.0293C33.6795 23.2755 33.4577 22.4548 33.402 21.6147C32.3407 21.4584 31.2658 21.4146 30.1953 21.4839C32.0907 23.4016 33.8589 25.4409 35.4889 27.5887C43.2889 38.5304 36.5116 47.9189 32.6289 51.9368C35.1741 51.6923 37.6173 50.813 39.7346 49.3794C41.8519 47.9459 43.5756 46.004 44.7477 43.7315C45.9199 41.4591 46.5031 38.9289 46.4439 36.3726C46.3846 33.8163 45.6849 31.3158 44.4087 29.1002H44.406Z" fill="#FBB040"/>
</g>
<path d="M91.7285 13.6716C94.1881 13.6716 95.8382 12.5866 95.8382 10.5395C95.8382 8.49244 94.1916 7.40737 91.7138 7.40737H86.5198V7.43771C87.2227 7.83464 87.3752 8.29311 87.3752 9.30104V16.2058C87.3752 17.2137 87.2227 17.6722 86.5198 18.0691V18.0994H90.874V18.0691C90.484 17.9792 90.1426 17.7449 89.9185 17.4132C89.6945 17.0816 89.6045 16.6774 89.6667 16.282V13.6699L91.7285 13.6716ZM89.6658 13.2747V7.80604H90.9953C92.752 7.80604 93.5615 8.92144 93.5615 10.5404C93.5615 12.1593 92.7546 13.2712 90.9953 13.2712L89.6658 13.2747ZM99.9471 10.4329C99.4338 10.4256 98.9243 10.5229 98.4498 10.7188C97.9752 10.9147 97.5455 11.2051 97.1868 11.5724C96.8281 11.9397 96.5479 12.3762 96.3633 12.8552C96.1787 13.3343 96.0935 13.8459 96.113 14.3589C96.0839 14.8742 96.1632 15.3899 96.3457 15.8726C96.5282 16.3554 96.81 16.7945 97.1728 17.1616C97.5356 17.5287 97.9713 17.8157 98.4519 18.0039C98.9324 18.1922 99.4471 18.2776 99.9627 18.2546C100.739 18.3041 101.508 18.0741 102.13 17.6061C102.752 17.1382 103.186 16.4632 103.354 15.7031L103.262 15.6572C103.08 16.1288 102.755 16.5322 102.334 16.8116C101.912 17.091 101.415 17.2327 100.909 17.2172C99.3491 17.2172 98.3429 15.9648 98.3429 14.0244H103.384C103.385 11.9712 102.3 10.4329 99.948 10.4329H99.9471ZM98.3585 13.702C98.4192 11.8993 99.031 10.7232 99.9324 10.7232C101.032 10.7232 101.216 12.0527 101.216 13.702H98.3585ZM112.352 17.5214C112.234 17.5822 112.102 17.6138 111.97 17.6132C111.252 17.6132 111.053 17.1088 111.053 16.1616C111.053 15.138 111.083 14.1752 111.083 13.0754C111.083 11.1964 109.831 10.4329 107.524 10.4329C105.751 10.4329 104.529 11.258 104.529 12.3578C104.529 12.5276 104.564 12.6955 104.632 12.851C104.701 13.0065 104.8 13.1461 104.925 13.261C105.05 13.3759 105.198 13.4635 105.359 13.5184C105.519 13.5733 105.689 13.5942 105.859 13.5798C106.139 13.6021 106.42 13.5341 106.659 13.3856C106.898 13.2372 107.084 13.0161 107.188 12.7547C107.105 12.7847 107.017 12.8002 106.928 12.8006C106.485 12.8006 106.211 12.48 106.211 11.9149C106.201 11.7493 106.228 11.5838 106.29 11.4298C106.351 11.2758 106.446 11.1372 106.567 11.0236C106.688 10.9101 106.832 10.8243 106.989 10.7724C107.147 10.7206 107.314 10.7038 107.478 10.7232C108.502 10.7232 108.884 11.5483 108.884 12.4644V13.7167L107.723 13.9308C105.89 14.267 104.179 14.618 104.179 16.2985C104.179 17.5985 105.203 18.2052 106.41 18.2052C106.974 18.2317 107.531 18.0621 107.985 17.7252C108.438 17.3882 108.762 16.9047 108.9 16.3566C108.9 16.4632 108.93 16.815 108.93 16.8766C108.954 17.0823 109.018 17.2812 109.12 17.4615C109.221 17.6419 109.358 17.8001 109.522 17.9268C109.686 18.0536 109.873 18.1462 110.073 18.1994C110.273 18.2526 110.482 18.2651 110.687 18.2364C110.997 18.2431 111.305 18.1856 111.591 18.0673C111.878 17.949 112.137 17.7725 112.352 17.5491V17.5214ZM108.885 13.9923L108.855 15.4743C108.839 16.5594 108.228 17.3073 107.419 17.3073C106.777 17.3073 106.379 16.8644 106.379 15.9934C106.379 14.9699 106.899 14.4048 108.089 14.1604L108.885 13.9923ZM116.676 10.7232C117.593 10.7232 118.006 11.2276 118.006 11.9305C118.006 12.4956 117.761 12.9081 117.257 12.9081C117.157 12.9083 117.058 12.8874 116.967 12.8466C116.997 13.2747 117.456 13.6716 118.143 13.6716C118.318 13.6818 118.492 13.6553 118.656 13.5939C118.82 13.5326 118.97 13.4377 119.095 13.3153C119.22 13.193 119.318 13.0458 119.383 12.8833C119.448 12.7208 119.478 12.5466 119.472 12.3716C119.472 11.2259 118.311 10.4312 116.662 10.4312C116.113 10.3972 115.564 10.4781 115.049 10.6687C114.534 10.8593 114.064 11.1553 113.67 11.5379C113.276 11.9204 112.967 12.381 112.761 12.8903C112.555 13.3995 112.458 13.946 112.476 14.495C112.461 14.995 112.55 15.4926 112.736 15.957C112.922 16.4214 113.201 16.8428 113.556 17.195C113.911 17.5472 114.335 17.8229 114.801 18.0048C115.267 18.1868 115.765 18.2712 116.265 18.2528C117.037 18.2996 117.801 18.0679 118.418 17.5998C119.034 17.1317 119.463 16.4582 119.626 15.7014L119.534 15.6554C119.359 16.1233 119.043 16.525 118.63 16.8047C118.216 17.0843 117.726 17.2279 117.227 17.2154C115.791 17.2154 114.8 16.0697 114.8 13.9923C114.797 12.1281 115.469 10.7232 116.675 10.7232H116.676ZM123.994 10.4329C123.48 10.4256 122.971 10.5229 122.496 10.7188C122.022 10.9147 121.592 11.2051 121.233 11.5724C120.875 11.9397 120.594 12.3762 120.41 12.8552C120.225 13.3343 120.14 13.8459 120.16 14.3589C120.13 14.8742 120.21 15.3899 120.392 15.8726C120.575 16.3554 120.857 16.7945 121.219 17.1616C121.582 17.5287 122.018 17.8157 122.498 18.0039C122.979 18.1922 123.494 18.2776 124.009 18.2546C124.786 18.3041 125.555 18.0741 126.177 17.6061C126.799 17.1382 127.233 16.4632 127.401 15.7031L127.309 15.6572C127.126 16.1288 126.802 16.5322 126.38 16.8116C125.959 17.091 125.461 17.2327 124.956 17.2172C123.396 17.2172 122.389 15.9648 122.389 14.0244H127.431C127.431 11.9712 126.346 10.4329 123.994 10.4329ZM122.405 13.702C122.466 11.8993 123.078 10.7232 123.979 10.7232C125.079 10.7232 125.262 12.0527 125.262 13.702H122.405ZM128.959 16.4363C128.959 17.4442 128.883 17.6886 128.195 18.0708V18.1012H132.396V18.0708C131.556 17.7502 131.158 17.4442 131.158 16.4363V10.9824H133.037L133.114 10.5854H131.158V8.66057C131.158 7.63704 131.418 6.81197 132.285 6.81197C132.85 6.81197 133.152 7.20891 133.152 7.80517C133.186 8.02459 133.137 8.24879 133.016 8.43479C132.895 8.62079 132.709 8.7555 132.495 8.81311C132.612 8.93556 132.755 9.03052 132.914 9.0912C133.072 9.15188 133.242 9.17677 133.412 9.16411C133.565 9.17513 133.72 9.15453 133.865 9.10358C134.01 9.05262 134.144 8.9724 134.257 8.86787C134.37 8.76333 134.461 8.6367 134.523 8.49581C134.585 8.35492 134.618 8.20275 134.619 8.04871C134.619 7.04077 133.611 6.56671 132.279 6.56671C131.831 6.51883 131.378 6.57153 130.954 6.72096C130.529 6.87039 130.143 7.11279 129.824 7.43045C129.504 7.74812 129.26 8.13303 129.109 8.55711C128.957 8.98119 128.903 9.43374 128.948 9.88171V10.5083L128.001 10.8446V10.9824H128.948L128.959 16.4363ZM138.839 14.8018C138.839 16.3141 138.121 17.1418 137.204 17.1418C136.338 17.1418 135.967 16.393 135.967 15.5818V10.5846H132.912V10.6149C133.629 10.9971 133.767 11.3022 133.767 12.2798V15.5948C133.767 17.1834 134.622 18.2528 136.15 18.2528C136.791 18.2566 137.413 18.0331 137.905 17.622C138.397 17.2109 138.727 16.6388 138.837 16.0073V18.1003H141.938V18.07C141.265 17.7337 141.037 17.5049 141.037 16.5273V10.5846H137.966V10.6149C138.684 10.9971 138.833 11.3022 138.833 12.2798L138.839 14.8018ZM145.408 6.65511H142.288V6.68544C143.006 7.02171 143.205 7.37271 143.205 8.33211V16.4285C143.205 17.4364 143.129 17.6808 142.425 18.063V18.0934H146.183V18.063C145.48 17.6808 145.403 17.4364 145.403 16.4285L145.408 6.65511ZM75.6935 18.4513C78.7597 18.4513 81.1474 21.0452 82.5627 24.6133H82.6216L82.4153 17.803C82.1779 18.0836 81.8852 18.3122 81.5555 18.4745C81.2258 18.6369 80.8662 18.7296 80.4991 18.7468C79.5259 18.7468 77.9936 17.803 75.3693 17.803C69.3555 17.803 64.373 22.1658 64.373 28.6225C64.373 34.7845 68.7358 39.0294 74.8978 39.0294C76.1381 39.0484 77.3638 38.7593 78.4649 38.1882C79.566 37.6171 80.5083 36.7817 81.2072 35.7569L83.6833 39.0294H83.7422V32.6906C83.7422 30.745 84.0369 29.8601 85.3889 29.094V29.035H77.783V29.094C79.1393 29.8601 79.4296 30.7406 79.4296 32.6906V33.7818C79.4816 34.3652 79.4055 34.953 79.2065 35.5039C79.0076 36.0548 78.6906 36.5556 78.2778 36.9712C77.865 37.3867 77.3664 37.7071 76.8169 37.9098C76.2673 38.1125 75.6801 38.1926 75.0963 38.1446C71.4996 38.1446 69.2593 34.1648 69.2593 28.6225C69.268 22.5238 71.569 18.4556 75.6969 18.4556L75.6935 18.4513ZM96.36 29.3592C96.653 29.5894 97.0201 29.7047 97.3922 29.6833C97.7662 29.6793 98.1355 29.5983 98.4769 29.4454C98.8183 29.2925 99.1246 29.0709 99.3766 28.7945C99.6287 28.5181 99.8211 28.1927 99.9419 27.8387C100.063 27.4846 100.109 27.1095 100.079 26.7366C100.083 26.35 100.006 25.9669 99.853 25.6116C99.7004 25.2564 99.4755 24.9368 99.1925 24.6733C98.9096 24.4098 98.5749 24.2081 98.2097 24.0811C97.8445 23.9541 97.4569 23.9045 97.0715 23.9356C94.4481 23.9356 93.0623 26.3527 92.3543 29.0654V24.2302H86.4609V24.2892C87.8476 25.0258 88.1076 25.616 88.1076 27.5028V35.522C88.1076 37.4677 87.9602 37.9392 86.6342 38.6767V38.7356H94.7419V38.6767C93.1204 38.0579 92.3543 37.4677 92.3543 35.522V31.4244C92.3543 28.4778 93.8579 26.4125 95.5384 26.4125C96.659 26.4125 97.2778 27.0018 97.2778 27.9725C97.2905 28.2711 97.2089 28.5661 97.0447 28.8157C96.8804 29.0654 96.6418 29.257 96.3626 29.3635L96.36 29.3592ZM108.713 39.0294C113.076 39.0294 116.495 35.9632 116.495 31.4825C116.495 27.0018 113.075 23.9356 108.713 23.9356C104.379 23.9356 100.959 27.0018 100.959 31.4825C100.959 35.9632 104.382 39.0329 108.715 39.0329L108.713 39.0294ZM108.713 38.499C106.561 38.499 105.528 35.8124 105.528 31.479C105.528 27.1457 106.561 24.492 108.713 24.492C110.894 24.492 111.926 27.1457 111.926 31.479C111.926 35.8124 110.897 38.5025 108.715 38.5025L108.713 38.499ZM132.328 39.0294H132.386L137.31 27.4724C138.165 25.5268 138.578 25.0848 139.58 24.2883V24.2294H135.276V24.2883C135.684 24.4126 136.041 24.6672 136.292 25.0132C136.542 25.3592 136.672 25.7776 136.663 26.2045C136.657 26.6507 136.567 27.0919 136.397 27.5045L133.951 33.4888L131.622 27.3563C131.403 26.8074 131.254 26.2328 131.18 25.6464C131.169 25.3565 131.248 25.0705 131.407 24.8276C131.565 24.5846 131.795 24.3969 132.065 24.29V24.2311H125.341V24.29C126.315 25.0856 126.641 25.5285 127.493 27.4152L127.935 28.4474L125.607 33.6067L122.833 27.3268C122.587 26.7872 122.437 26.2084 122.391 25.6169C122.365 25.3471 122.421 25.0757 122.553 24.8387C122.684 24.6017 122.885 24.4103 123.128 24.29V24.2311H116.406V24.29C117.379 25.0856 117.733 25.558 118.558 27.4152L123.806 39.0286H123.865L128.285 29.3288L132.328 39.0294ZM150.134 33.605C149.751 35.7274 148.807 36.907 147.421 36.907C146.183 36.907 145.564 36.0221 145.564 34.3425V24.9998H149.897L150.045 24.2337H145.563V19.1334H145.269C144.948 20.5102 144.244 21.7676 143.236 22.7593C142.229 23.751 140.961 24.436 139.579 24.7346V24.9998H141.348L141.318 34.3156C141.289 37.4998 143.087 39.0329 145.652 39.0329C148.865 39.0329 150.104 36.5274 150.428 33.6968L150.134 33.605ZM151.196 16.653V16.7119C152.582 17.3602 152.965 18.0388 152.965 19.896V35.5246C152.965 37.4703 152.817 37.9418 151.461 38.6793V38.7382H158.713V38.6793C157.357 37.9426 157.21 37.4703 157.21 35.5246V30.6046C157.21 27.6856 158.51 26.0641 160.335 26.0641C162.074 26.0641 162.752 27.4204 162.752 29.0714V35.5281C162.752 37.4738 162.605 37.9452 161.248 38.6828V38.7417H168.501V38.6828C167.145 37.9461 166.998 37.4738 166.998 35.5281V29.0714C166.998 26.0052 165.351 23.9416 162.339 23.9416C159.834 23.9416 157.946 25.5016 157.21 28.1883V16.6616L151.196 16.653Z" fill="#181818"/>
</g>
<defs>
<clipPath id="clip0_4266_10733">
<rect width="168.504" height="52" fill="white"/>
</clipPath>
</defs>
</svg>
