<svg width="214" height="54" viewBox="0 0 214 54" fill="none" xmlns="http://www.w3.org/2000/svg">
<path d="M20.298 53.3473L20.3027 45.5642L18.4883 45.1956C12.9937 44.0752 8.11139 40.9541 4.78748 36.4377C1.46358 31.9213 -0.0643588 26.3313 0.499492 20.752C1.06334 15.1728 3.67833 10.0019 7.83866 6.24186C11.999 2.48183 17.4075 0.400791 23.0152 0.402345C26.4741 0.405497 29.8875 1.19244 32.9985 2.70428C36.4754 4.40989 39.4565 6.97948 41.6562 10.1668C43.856 13.3542 45.201 17.0526 45.5623 20.9084C45.9236 24.7642 45.289 28.6485 43.7197 32.189C42.1504 35.7296 39.6992 38.8082 36.5997 41.13L20.2987 53.3481L20.298 53.3473ZM23.0238 9.84072C19.7572 9.84145 16.6068 11.055 14.1838 13.2459C11.7609 15.4368 10.2376 18.4492 9.90919 21.6993C9.58076 24.9494 10.4708 28.2054 12.4064 30.8367C14.342 33.4681 17.1856 35.2873 20.386 35.9415L21.4413 36.1572V40.6912L30.9413 33.5712C32.7485 32.2191 34.1781 30.4254 35.0934 28.3623C36.0087 26.2992 36.3787 24.036 36.1683 21.7889C35.958 19.5417 35.1742 17.3859 33.8919 15.5286C32.6096 13.6712 30.8716 12.1744 28.8449 11.1813C27.0302 10.3008 25.0401 9.84302 23.023 9.84229L23.0238 9.84072Z" fill="#4B1BCE"/>
<path d="M17.0865 24.7298C17.8979 24.7298 18.5557 24.072 18.5557 23.2605C18.5557 22.4491 17.8979 21.7913 17.0865 21.7913C16.275 21.7913 15.6172 22.4491 15.6172 23.2605C15.6172 24.072 16.275 24.7298 17.0865 24.7298Z" fill="#4B1BCE"/>
<path d="M23.0318 24.7298C23.8432 24.7298 24.501 24.072 24.501 23.2605C24.501 22.4491 23.8432 21.7913 23.0318 21.7913C22.2203 21.7913 21.5625 22.4491 21.5625 23.2605C21.5625 24.072 22.2203 24.7298 23.0318 24.7298Z" fill="#4B1BCE"/>
<path d="M28.9751 24.7298C29.7866 24.7298 30.4444 24.072 30.4444 23.2605C30.4444 22.4491 29.7866 21.7913 28.9751 21.7913C28.1637 21.7913 27.5059 22.4491 27.5059 23.2605C27.5059 24.072 28.1637 24.7298 28.9751 24.7298Z" fill="#4B1BCE"/>
<path d="M81.2302 34.354V13.1052C81.2294 12.7778 81.099 12.4641 80.8676 12.2325C80.6361 12.0009 80.3225 11.8703 79.9951 11.8693H77.4629C77.2225 11.875 76.9885 11.9473 76.7868 12.0781C76.585 12.209 76.4236 12.3932 76.3203 12.6103L71.6558 22.0632C71.5013 22.3408 71.4394 22.4953 71.3163 22.4953C71.1932 22.4953 71.1312 22.3408 70.9767 22.0632L66.3098 12.6128C66.2072 12.3956 66.0463 12.2112 65.8452 12.08C65.6441 11.9487 65.4105 11.8758 65.1705 11.8693H62.6375C62.3101 11.8703 61.9964 12.0009 61.765 12.2325C61.5336 12.4641 61.4032 12.7778 61.4023 13.1052V34.354C61.403 34.4201 61.4176 34.4853 61.4451 34.5453C61.4726 34.6054 61.5124 34.659 61.5619 34.7027C61.6115 34.7464 61.6696 34.7792 61.7326 34.799C61.7957 34.8188 61.8622 34.8251 61.9278 34.8175H65.0465C65.1914 34.7953 65.3226 34.7194 65.4141 34.6049C65.5056 34.4904 65.5508 34.3458 65.5406 34.1996V19.8376C65.5406 19.6211 65.5712 19.5286 65.6331 19.5286C65.6637 19.5286 65.7257 19.6211 65.7876 19.7137L68.7833 25.6125C68.887 25.7794 69.0331 25.9159 69.2066 26.0082C69.3801 26.1005 69.575 26.1452 69.7714 26.1379H72.891C73.0874 26.1452 73.2822 26.1005 73.4557 26.0082C73.6293 25.9159 73.7753 25.7794 73.879 25.6125L76.8441 19.7137C76.9061 19.6211 76.968 19.5286 76.9986 19.5286C77.0606 19.5286 77.0912 19.6211 77.0912 19.8376V34.1996C77.081 34.3458 77.1261 34.4904 77.2176 34.6049C77.3092 34.7194 77.4404 34.7953 77.5852 34.8175H80.7056C80.7711 34.825 80.8375 34.8185 80.9005 34.7987C80.9634 34.7789 81.0215 34.7461 81.0709 34.7024C81.1203 34.6587 81.1601 34.6051 81.1875 34.5451C81.215 34.4851 81.2295 34.42 81.2302 34.354ZM99.8238 34.1996V18.0465C99.8252 17.8793 99.7614 17.7181 99.6461 17.5971C99.5308 17.476 99.3729 17.4046 99.2058 17.3979H96.3638C96.1968 17.4046 96.0389 17.476 95.9235 17.5971C95.8082 17.7181 95.7445 17.8793 95.7459 18.0465V30.4009C94.6858 31.0578 93.4972 31.4798 92.2602 31.6384C91.574 31.7066 90.8881 31.5074 90.3451 31.0824C89.7586 30.557 89.6346 29.6614 89.6346 28.1173V18.0465C89.636 17.8793 89.5723 17.7181 89.457 17.5971C89.3416 17.476 89.1837 17.4046 89.0167 17.3979H86.1723C86.0052 17.4046 85.8473 17.476 85.732 17.5971C85.6167 17.7181 85.5529 17.8793 85.5543 18.0465V28.1149C85.5543 30.6785 85.9566 32.5935 87.0984 33.7361C88.1435 34.6534 89.5092 35.1198 90.8971 35.0332C92.639 35.0626 94.3425 34.5202 95.7467 33.4891V34.1996C95.7471 34.3633 95.8123 34.5203 95.9281 34.6361C96.0439 34.7519 96.2009 34.8171 96.3646 34.8175H99.2058C99.3696 34.8171 99.5265 34.7519 99.6423 34.6361C99.7581 34.5203 99.8233 34.3633 99.8238 34.1996ZM108.07 34.169V11.9312C108.073 11.8518 108.06 11.7726 108.032 11.6982C108.004 11.6239 107.962 11.5559 107.907 11.4982C107.852 11.4406 107.787 11.3945 107.714 11.3628C107.641 11.331 107.563 11.3142 107.483 11.3133H104.611C104.447 11.3137 104.29 11.3789 104.174 11.4947C104.058 11.6105 103.993 11.7675 103.993 11.9312V34.1682C103.991 34.3354 104.055 34.4965 104.17 34.6176C104.286 34.7386 104.443 34.81 104.611 34.8167H107.483C107.647 34.8078 107.8 34.7346 107.91 34.6131C108.02 34.4917 108.077 34.3326 108.07 34.169ZM121.968 34.2929V32.3465C121.968 32.0375 121.721 31.883 121.32 31.883H119.682C118.57 31.883 118.475 31.6979 118.475 30.1538V20.4539H121.255C121.419 20.4535 121.576 20.3883 121.692 20.2725C121.808 20.1567 121.873 19.9997 121.873 19.836V18.0159C121.873 17.8521 121.808 17.6952 121.692 17.5794C121.576 17.4636 121.419 17.3984 121.255 17.3979H118.478V14.2164C118.481 14.1521 118.47 14.0879 118.445 14.0283C118.421 13.9686 118.384 13.915 118.337 13.8709C118.29 13.8269 118.234 13.7935 118.173 13.7732C118.112 13.7528 118.048 13.7459 117.984 13.7529H117.86L114.987 14.247C114.827 14.2577 114.676 14.3263 114.562 14.4399C114.448 14.5536 114.38 14.7046 114.369 14.8649V17.3963H111.467C111.303 17.3967 111.146 17.462 111.03 17.5778C110.915 17.6936 110.849 17.8505 110.849 18.0143V19.4079C110.86 19.5683 110.928 19.7193 111.042 19.8329C111.155 19.9466 111.307 20.0151 111.467 20.0259L114.37 20.458V30.153C114.37 34.2913 115.791 35.0613 119.278 35.0613C119.983 35.0473 120.686 34.9749 121.378 34.8449C121.782 34.7861 121.968 34.6003 121.968 34.2929ZM129.01 14.4634V11.7462C129.009 11.6648 128.993 11.5843 128.962 11.5092C128.93 11.4341 128.885 11.3659 128.827 11.3085C128.769 11.2511 128.701 11.2057 128.626 11.1747C128.55 11.1438 128.47 11.128 128.388 11.1282H125.396C125.229 11.1268 125.068 11.1905 124.947 11.3059C124.826 11.4212 124.754 11.5791 124.747 11.7462V14.4634C124.754 14.6305 124.826 14.7884 124.947 14.9037C125.068 15.0191 125.229 15.0828 125.396 15.0814H128.388C128.47 15.0816 128.55 15.0658 128.626 15.0348C128.701 15.0039 128.769 14.9584 128.827 14.901C128.885 14.8437 128.93 14.7755 128.962 14.7004C128.993 14.6253 129.009 14.5448 129.01 14.4634ZM128.917 34.1682V18.0159C128.917 17.8521 128.851 17.6952 128.736 17.5794C128.62 17.4636 128.463 17.3984 128.299 17.3979H125.458C125.294 17.3984 125.137 17.4636 125.021 17.5794C124.906 17.6952 124.84 17.8521 124.84 18.0159V34.1682C124.839 34.3354 124.902 34.4965 125.018 34.6176C125.133 34.7386 125.291 34.81 125.458 34.8167H128.299C128.466 34.81 128.624 34.7386 128.739 34.6176C128.855 34.4965 128.918 34.3354 128.917 34.1682ZM144.079 33.86V31.8524C144.079 31.5434 143.832 31.389 143.523 31.389H143.435C142.114 31.5609 140.782 31.6333 139.451 31.6054C138.002 31.6054 136.485 30.7718 136.485 27.5597V24.6871C136.485 21.475 137.999 20.6414 139.451 20.6414C140.782 20.6135 142.114 20.6859 143.435 20.8579H143.528C143.837 20.8579 144.084 20.7034 144.084 20.3944V18.386C144.084 17.892 143.96 17.7069 143.435 17.5814C142.127 17.2902 140.79 17.1551 139.451 17.1791C135.435 17.1791 132.408 19.6501 132.408 24.6839V27.5565C132.408 32.5911 135.435 35.0613 139.451 35.0613C140.79 35.0853 142.127 34.9502 143.435 34.659C143.958 34.5351 144.079 34.354 144.079 33.86ZM161.717 27.3738V24.8722C161.717 20.4556 159.185 17.1815 154.336 17.1815C149.486 17.1815 146.954 20.4556 146.954 24.8722V27.3738C146.954 31.7905 149.486 35.0645 154.336 35.0645C159.185 35.0645 161.717 31.7905 161.717 27.3738ZM157.64 27.3738C157.64 29.906 156.498 31.5434 154.336 31.5434C152.173 31.5434 151.031 29.9068 151.031 27.3738V24.8722C151.031 22.34 152.173 20.7026 154.336 20.7026C156.498 20.7026 157.64 22.3392 157.64 24.8722V27.3738ZM169.439 34.1682V11.9312C169.442 11.8518 169.429 11.7726 169.401 11.6982C169.373 11.6239 169.331 11.5559 169.276 11.4982C169.221 11.4406 169.156 11.3945 169.083 11.3628C169.01 11.331 168.931 11.3142 168.852 11.3133H165.979C165.816 11.3137 165.659 11.3789 165.543 11.4947C165.427 11.6105 165.362 11.7675 165.361 11.9312V34.1682C165.36 34.3354 165.424 34.4965 165.539 34.6176C165.654 34.7386 165.812 34.81 165.979 34.8167H168.852C169.015 34.8078 169.169 34.7346 169.279 34.6131C169.389 34.4917 169.446 34.3318 169.439 34.1682ZM177.839 34.1682V11.9312C177.842 11.8518 177.829 11.7726 177.802 11.6982C177.774 11.6239 177.731 11.5559 177.676 11.4982C177.622 11.4406 177.556 11.3945 177.483 11.3628C177.41 11.331 177.332 11.3142 177.252 11.3133H174.38C174.216 11.3137 174.059 11.3789 173.943 11.4947C173.828 11.6105 173.762 11.7675 173.762 11.9312V34.1682C173.76 34.3354 173.824 34.4965 173.94 34.6176C174.055 34.7386 174.213 34.81 174.38 34.8167H177.252C177.416 34.8078 177.569 34.7346 177.679 34.6131C177.789 34.4917 177.846 34.3318 177.839 34.1682ZM194.918 34.1988V23.0811C194.918 19.1279 192.509 17.1823 188.124 17.1823C186.393 17.179 184.665 17.3445 182.966 17.6763C182.564 17.7689 182.38 17.9853 182.38 18.3249V20.3011C182.38 20.7331 182.627 20.8265 182.936 20.8265H183.09C184.763 20.6574 186.443 20.5749 188.125 20.5795C189.947 20.5795 190.843 21.0735 190.843 23.0811V24.4401H188.897C183.523 24.4401 181.361 26.2626 181.361 29.7829V29.9068C181.361 34.0764 184.141 35.0645 186.704 35.0645C188.253 35.0236 189.761 34.5531 191.058 33.7055V34.1996C191.059 34.3633 191.124 34.5203 191.24 34.6361C191.356 34.7519 191.513 34.8171 191.676 34.8175H194.302C194.465 34.8167 194.622 34.7512 194.737 34.6355C194.853 34.5197 194.918 34.3622 194.918 34.1988ZM190.841 30.9561C189.878 31.4976 188.796 31.7946 187.691 31.821C186.147 31.821 185.467 31.4187 185.467 29.906V29.7821C185.467 28.0529 186.085 27.1566 188.895 27.1566H190.841V30.9561ZM213.358 27.3119V24.9342C213.358 20.116 210.949 17.1823 205.976 17.1823C204.984 17.1914 203.994 17.2637 203.011 17.3987V11.9312C203.011 11.7675 202.946 11.6105 202.83 11.4947C202.714 11.3789 202.557 11.3137 202.393 11.3133H199.552C199.388 11.3137 199.231 11.3789 199.116 11.4947C199 11.6105 198.935 11.7675 198.934 11.9312V33.4271C198.934 33.8906 199.058 34.0756 199.768 34.2607C201.798 34.7749 203.882 35.045 205.976 35.0653C210.944 35.0637 213.358 32.13 213.358 27.3119ZM209.281 27.3119C209.281 29.8441 208.632 31.7285 205.976 31.7285C204.984 31.7384 203.992 31.666 203.011 31.5121V20.7299C203.995 20.6008 204.985 20.5285 205.976 20.5135C208.632 20.5135 209.281 22.3971 209.281 24.9301V27.3119Z" fill="black"/>
</svg>
