<svg width="155" height="30" viewBox="0 0 155 30" fill="none" xmlns="http://www.w3.org/2000/svg">
<g clip-path="url(#clip0_4266_10715)">
<path d="M54.5044 17.34V22.0708C54.502 22.4327 54.5714 22.7915 54.7086 23.1264C54.8458 23.4612 55.048 23.7656 55.3036 24.0218C55.5591 24.278 55.863 24.481 56.1975 24.619C56.5321 24.757 56.8906 24.8273 57.2525 24.8258C57.9473 24.8258 58.6438 24.7854 59.3369 24.8534C59.9569 24.9284 60.5286 25.2261 60.9457 25.691C61.3628 26.1559 61.597 26.7565 61.6045 27.3811C61.6188 28.0076 61.3982 28.6168 60.986 29.0888C60.5738 29.5609 60 29.8617 59.3773 29.932C57.7073 30.1611 56.0069 29.9972 54.4115 29.4533C53.1147 28.9622 51.9721 28.1347 51.1012 27.0557C50.2303 25.9767 49.6623 24.6852 49.4559 23.314C49.3852 22.8934 49.3526 22.4672 49.3586 22.0407C49.3586 15.5958 49.3586 9.15087 49.3586 2.70594C49.3482 2.36708 49.4049 2.02949 49.5253 1.71259C49.6458 1.39569 49.8277 1.10574 50.0606 0.859385C50.2935 0.613033 50.5728 0.415151 50.8825 0.277111C51.1921 0.13907 51.526 0.063587 51.8649 0.0550205C52.2038 0.0464541 52.5411 0.10497 52.8573 0.227191C53.1735 0.349412 53.4624 0.53292 53.7075 0.767191C53.9525 1.00146 54.1489 1.28188 54.2852 1.59228C54.4216 1.90269 54.4952 2.23698 54.5018 2.57594C54.5076 4.01082 54.5076 5.44312 54.5018 6.87284C54.5018 7.07086 54.563 7.10097 54.7395 7.10011C56.1784 7.09322 57.6176 7.09322 59.057 7.10011C59.3952 7.10401 59.7293 7.1745 60.0402 7.30751C60.3511 7.44052 60.6328 7.63346 60.8692 7.87533C61.1055 8.11721 61.2919 8.40328 61.4177 8.71719C61.5435 9.0311 61.6063 9.36671 61.6024 9.70487C61.5985 10.043 61.528 10.3771 61.395 10.688C61.262 10.9989 61.069 11.2806 60.8271 11.517C60.5853 11.7534 60.2993 11.9398 59.9853 12.0656C59.6714 12.1914 59.3358 12.2541 58.9976 12.2502C57.5627 12.2548 56.1305 12.2548 54.7007 12.2502C54.5337 12.2502 54.5027 12.2984 54.5027 12.4543C54.5044 14.0763 54.5044 15.7086 54.5044 17.34Z" fill="black"/>
<path d="M72.4585 29.9311H66.3863C66.0596 29.9579 65.7353 29.8569 65.4816 29.6495C65.2279 29.442 65.0646 29.1442 65.026 28.8188C64.998 28.6399 65.0093 28.4571 65.059 28.283C65.1087 28.1089 65.1956 27.9477 65.3138 27.8105C65.432 27.6734 65.5785 27.5635 65.7434 27.4886C65.9082 27.4137 66.0873 27.3755 66.2684 27.3767C70.1316 27.3767 73.9946 27.3767 77.8574 27.3767C78.3929 27.4016 78.927 27.3043 79.4193 27.092C79.9115 26.8798 80.349 26.5581 80.6984 26.1516C81.1619 25.6488 81.4657 25.0198 81.5713 24.3442C81.6769 23.6686 81.5795 22.9768 81.2916 22.3566C81.056 21.7249 80.6345 21.1794 80.0825 20.7923C79.5306 20.4051 78.8741 20.1944 78.2 20.1879C77.0592 20.1345 75.9151 20.1673 74.7717 20.1647C73.5739 20.1647 72.3758 20.1647 71.1774 20.1647C69.6318 20.1688 68.1413 19.5909 67.0025 18.546C65.8636 17.5011 65.1598 16.0658 65.0311 14.5256C64.9024 12.9854 65.3583 11.4532 66.3079 10.2337C67.2576 9.01435 68.6315 8.19712 70.1563 7.94464C70.4752 7.89086 70.798 7.86377 71.1214 7.86369H82.8964C83.1702 7.85561 83.4389 7.93938 83.6596 8.10163C83.8804 8.26388 84.0406 8.4953 84.1146 8.75907C84.1951 9.02071 84.1899 9.30122 84.0997 9.5597C84.0096 9.81818 83.8392 10.0411 83.6135 10.196C83.3678 10.3507 83.0805 10.4261 82.7905 10.4121C78.9203 10.4121 75.0504 10.4121 71.1808 10.4121C70.3975 10.411 69.6354 10.6669 69.0114 11.1406C68.3875 11.6143 67.9362 12.2795 67.7266 13.0344C67.5171 13.7892 67.561 14.5919 67.8515 15.3194C68.142 16.0469 68.6631 16.659 69.335 17.0619C69.9113 17.4042 70.5708 17.5811 71.2411 17.5733C73.4927 17.5733 75.7443 17.5733 77.9959 17.5733C79.4632 17.5738 80.8824 18.0965 81.9996 19.0478C83.1167 19.9991 83.8589 21.3168 84.0932 22.7653C84.3276 24.2138 84.0388 25.6983 83.2786 26.9534C82.5185 28.2084 81.3365 29.1519 79.9442 29.6151C79.3029 29.825 78.632 29.9306 77.9572 29.9277C76.1217 29.9337 74.2905 29.9311 72.4585 29.9311Z" fill="black"/>
<path d="M86.7269 12.251C86.7269 8.60844 86.7355 4.96498 86.7192 1.32239C86.7105 0.983035 86.8359 0.65395 87.068 0.406306C87.3002 0.158663 87.6205 0.0123878 87.9598 -0.000854492C88.3146 0.00276527 88.6538 0.146004 88.9039 0.397846C89.154 0.649689 89.2948 0.989864 89.2959 1.34477C89.2959 3.44487 89.2959 5.54525 89.2959 7.64592C89.2959 7.83102 89.3433 7.86893 89.5215 7.86807C91.6084 7.86118 93.6944 7.86376 95.7813 7.86807C95.9536 7.85725 96.1262 7.88216 96.2884 7.94124C96.4505 8.00032 96.5987 8.09229 96.7236 8.21138C96.8485 8.33047 96.9474 8.4741 97.0142 8.63326C97.0809 8.79241 97.114 8.96365 97.1115 9.13621C97.1122 9.30853 97.078 9.47921 97.0109 9.63793C96.9439 9.79666 96.8453 9.94013 96.7212 10.0597C96.5971 10.1793 96.4501 10.2724 96.289 10.3336C96.1279 10.3948 95.9561 10.4226 95.7839 10.4155C93.6901 10.4155 91.5966 10.4155 89.5034 10.4155C89.3519 10.4155 89.2968 10.4405 89.2977 10.611C89.3034 14.7084 89.3054 18.8059 89.3037 22.9034C89.3316 23.9531 89.7178 24.9618 90.3981 25.7617C91.0784 26.5617 92.0119 27.1049 93.0436 27.301C93.658 27.3772 94.2776 27.404 94.8963 27.381C95.1924 27.381 95.4886 27.381 95.7848 27.381C95.9551 27.3722 96.1254 27.3977 96.2857 27.4559C96.446 27.5141 96.5929 27.6038 96.7179 27.7198C96.8429 27.8358 96.9434 27.9757 97.0133 28.1312C97.0833 28.2867 97.1214 28.4546 97.1253 28.6251C97.1292 28.7956 97.0989 28.9651 97.0362 29.1237C96.9734 29.2822 96.8795 29.4266 96.76 29.5482C96.6404 29.6698 96.4977 29.7662 96.3403 29.8317C96.1828 29.8971 96.0139 29.9304 95.8433 29.9294C94.8463 29.9792 93.8469 29.9559 92.8533 29.8597C91.3337 29.6625 89.925 28.9585 88.8552 27.8615C87.9544 26.9845 87.3046 25.8826 86.9731 24.67C86.8131 24.0786 86.7321 23.4687 86.7321 22.856C86.7309 19.3199 86.7292 15.7849 86.7269 12.251Z" fill="black"/>
<path d="M123.925 11.8069C124.869 10.7487 125.983 9.85516 127.22 9.16298C128.816 8.29731 130.605 7.85062 132.421 7.8647C132.762 7.8647 133.089 7.99967 133.331 8.24018C133.573 8.48069 133.71 8.80719 133.712 9.14835C133.708 9.48953 133.571 9.81554 133.329 10.0568C133.088 10.2981 132.762 10.4355 132.421 10.4397C130.758 10.4271 129.128 10.9086 127.739 11.8234C126.35 12.7381 125.264 14.0448 124.618 15.5778C124.143 16.6198 123.905 17.7548 123.924 18.9001C123.924 22.1636 123.924 25.4274 123.924 28.6915C123.926 28.9797 123.829 29.2601 123.648 29.4845C123.467 29.7089 123.214 29.8635 122.932 29.9218C122.654 29.9858 122.364 29.9553 122.106 29.8352C121.848 29.7151 121.637 29.5122 121.508 29.2588C121.416 29.0733 121.369 28.8691 121.369 28.6622C121.369 22.1622 121.369 15.6621 121.369 9.16212C121.37 8.8235 121.506 8.49925 121.746 8.2607C121.987 8.02215 122.312 7.88883 122.651 7.89008C122.989 7.89134 123.314 8.02707 123.552 8.2674C123.791 8.50772 123.924 8.83296 123.923 9.17157C123.927 10.0359 123.925 10.9029 123.925 11.8069Z" fill="black"/>
<path d="M119.223 19.4458C119.223 19.071 119.223 18.6962 119.223 18.3214C119.28 18.694 119.28 19.0732 119.223 19.4458Z" fill="black"/>
<path d="M108.598 7.86287H107.764C108.04 7.81475 108.322 7.81475 108.598 7.86287Z" fill="black"/>
<path d="M97.098 18.6521C97.098 18.8065 97.098 18.9609 97.098 19.1153C97.0533 18.9641 97.0533 18.8033 97.098 18.6521Z" fill="black"/>
<path d="M22.8566 2.28581C22.7698 1.63321 22.4361 1.03873 21.9242 0.624747C21.4123 0.210766 20.7612 0.00878646 20.1049 0.0604184C19.4486 0.11205 18.837 0.413366 18.3961 0.902301C17.9553 1.39124 17.7186 2.0306 17.735 2.68874C17.735 4.71997 17.735 6.75146 17.735 8.78326C17.7503 8.85957 17.7412 8.93877 17.7091 9.00968C16.3078 8.09064 14.7213 7.49144 13.0623 7.25464C11.4033 7.01783 9.71252 7.14924 8.11003 7.63952C6.50754 8.12979 5.03267 8.9669 3.79016 10.0914C2.54766 11.2159 1.56801 12.6002 0.920789 14.146C0.273572 15.6918 -0.0253387 17.3612 0.0453023 19.0355C0.115943 20.7098 0.554392 22.348 1.32951 23.8338C2.10463 25.3196 3.19741 26.6164 4.53022 27.6323C5.86303 28.6482 7.40318 29.3581 9.04127 29.7116C10.5407 30.0437 12.0918 30.07 13.6017 29.789C15.1115 29.5079 16.5492 28.9253 17.8288 28.0759L17.8667 28.1973C18.0577 28.8074 18.4719 29.323 19.0265 29.6411C19.5811 29.9592 20.2353 30.0563 20.8584 29.9131C21.4487 29.7837 21.9749 29.4515 22.3455 28.9743C22.7161 28.497 22.9076 27.9049 22.8867 27.301C22.8867 19.1618 22.8867 11.0225 22.8867 2.8833C22.8869 2.68375 22.8769 2.48433 22.8566 2.28581ZM11.4656 24.8586C10.2153 24.8602 8.99263 24.49 7.95312 23.7951C6.91362 23.1002 6.1042 22.112 5.62772 20.9559C5.15124 19.7999 5.02922 18.5283 5.27718 17.3027C5.52514 16.0772 6.13187 14.953 7.02027 14.0731C7.90867 13.1932 9.03861 12.5973 10.2665 12.3611C11.4944 12.125 12.7647 12.2592 13.9162 12.7468C15.0676 13.2344 16.048 14.0532 16.7329 15.0994C17.4178 16.1455 17.7761 17.3717 17.7625 18.622C17.7327 20.277 17.0576 21.8548 15.8812 23.0192C14.7047 24.1836 13.12 24.8424 11.4648 24.8551L11.4656 24.8586Z" fill="black"/>
<path d="M154.772 16.7874C154.184 13.9384 152.508 11.431 150.101 9.79737C147.694 8.16374 144.745 7.53253 141.88 8.03775C139.154 8.54861 136.719 10.0663 135.061 12.2892C133.402 14.5121 132.64 17.2777 132.926 20.0365C133.098 21.5817 133.592 23.0736 134.376 24.4162C135.16 25.7587 136.216 26.9221 137.477 27.8313C138.739 28.7404 140.176 29.3752 141.698 29.6946C143.219 30.014 144.791 30.0111 146.311 29.6858C147.845 29.3724 149.287 28.7144 150.53 27.7617C150.747 27.617 150.913 27.4081 151.006 27.1642C151.098 26.9204 151.112 26.6537 151.046 26.4014C150.997 26.1878 150.894 25.9902 150.747 25.8274C150.6 25.6645 150.414 25.5417 150.207 25.4706C150 25.3994 149.778 25.3823 149.562 25.4207C149.346 25.4591 149.143 25.5519 148.973 25.6903C148.026 26.399 146.94 26.9003 145.786 27.1615C144.633 27.4228 143.437 27.438 142.277 27.2064C140.604 26.8726 139.069 26.0444 137.872 24.8289C136.675 23.6134 135.87 22.0666 135.562 20.3887C135.525 20.1777 135.58 20.1588 135.763 20.1588C138.752 20.1634 141.74 20.1634 144.73 20.1588H150.886C151.823 20.1588 152.759 20.1588 153.696 20.1588C154.016 20.1676 154.327 20.0513 154.563 19.8346C154.798 19.6179 154.94 19.3179 154.958 18.9983C154.981 18.2566 154.918 17.5148 154.772 16.7874ZM152.044 17.6156H135.83C135.509 17.6156 135.505 17.6156 135.572 17.3031C135.81 16.0194 136.348 14.8098 137.14 13.7723C137.933 12.7348 138.959 11.8984 140.135 11.3308C141.301 10.7483 142.586 10.4425 143.889 10.4372C145.193 10.4319 146.48 10.7273 147.651 11.3005C148.821 11.8736 149.844 12.7089 150.64 13.7417C151.435 14.7744 151.982 15.9766 152.237 17.2549C152.259 17.3694 152.28 17.4839 152.305 17.6147L152.044 17.6156Z" fill="black"/>
<path d="M119.222 18.3224C119.188 17.6779 119.099 17.0375 118.954 16.4085C118.537 14.6255 117.675 12.9773 116.448 11.6183C115.354 10.3754 113.999 9.3901 112.48 8.73333C111.249 8.2119 109.933 7.91731 108.598 7.86378C108.32 7.84456 108.041 7.84456 107.763 7.86378C107.278 7.8708 106.794 7.91657 106.316 8.00067C105.168 8.19514 104.058 8.5712 103.028 9.11472C102.09 9.62869 101.221 10.2622 100.446 10.9993C100.091 11.3468 99.7602 11.7179 99.4555 12.1099C98.8149 12.8924 98.2952 13.7665 97.9136 14.703C97.3835 15.9525 97.1069 17.2949 97.1 18.6521C97.0839 18.8061 97.0839 18.9613 97.1 19.1153C97.0898 19.3486 97.0933 19.5823 97.1103 19.8152C97.1725 20.3887 97.2691 20.958 97.3996 21.5199C97.6518 22.5447 98.049 23.5283 98.5791 24.441C99.123 25.3514 99.7876 26.1841 100.555 26.9162C101.013 27.3603 101.509 27.7636 102.037 28.1215C102.778 28.6266 103.58 29.0348 104.425 29.3363C105.423 29.7002 106.469 29.9151 107.53 29.9742C108.354 30.014 109.18 29.9626 109.992 29.821C111.14 29.6272 112.249 29.2493 113.277 28.7018C114.482 28.0598 115.564 27.2082 116.471 26.187C117.047 25.5432 117.545 24.8341 117.955 24.0743C118.718 22.645 119.153 21.0635 119.228 19.445C119.238 19.0714 119.243 18.6969 119.222 18.3224ZM108.186 27.3949C106.504 27.402 104.858 26.9088 103.457 25.9781C102.056 25.0474 100.964 23.7212 100.318 22.168C99.6731 20.6148 99.5041 18.9048 99.8331 17.2554C100.162 15.6059 100.974 14.0915 102.166 12.9047C103.357 11.7178 104.875 10.9121 106.526 10.5899C108.177 10.2678 109.886 10.4437 111.436 11.0954C112.987 11.7471 114.309 12.8451 115.234 14.2498C116.159 15.6545 116.645 17.3026 116.631 18.9844C116.608 21.2138 115.71 23.3447 114.13 24.918C112.55 26.4912 110.416 27.3808 108.186 27.3949Z" fill="black"/>
<path d="M36.2833 7.09571C34.0141 7.06413 31.7868 7.70791 29.8843 8.94524C27.9819 10.1826 26.4903 11.9576 25.5991 14.0447C24.7079 16.1318 24.4573 18.4367 24.8792 20.6665C25.3011 22.8964 26.3764 24.9505 27.9685 26.5677C29.5606 28.1849 31.5976 29.2923 33.8205 29.7491C36.0435 30.2059 38.3521 29.9914 40.4529 29.133C42.5537 28.2746 44.3518 26.811 45.6188 24.9282C46.8858 23.0454 47.5644 20.8284 47.5684 18.559C47.5777 15.5467 46.3974 12.6525 44.2841 10.5058C42.1708 8.35913 39.2954 7.13359 36.2833 7.09571ZM36.1378 24.6114C34.9298 24.6144 33.7483 24.2569 32.7446 23.5846C31.7409 22.9124 30.9606 21.9559 30.5035 20.8377C30.0464 19.7194 29.9334 18.4902 30.1789 17.3074C30.4244 16.1246 31.0172 15.0419 31.8815 14.1978C32.7458 13.3538 33.8422 12.7869 35.0306 12.5696C36.2189 12.3522 37.4451 12.4944 38.5522 12.9779C39.6592 13.4614 40.5969 14.2642 41.2451 15.2836C41.8934 16.303 42.2227 17.4926 42.191 18.7002C42.1496 20.2794 41.4941 21.7803 40.3638 22.8841C39.2336 23.9878 37.7176 24.6074 36.1378 24.6114Z" fill="#27AE60"/>
<path d="M36.134 22.4995C35.3508 22.5026 34.5843 22.2733 33.9313 21.8408C33.2784 21.4083 32.7684 20.7918 32.4658 20.0695C32.1632 19.3471 32.0815 18.5512 32.2312 17.7825C32.3808 17.0137 32.7551 16.3066 33.3066 15.7505C33.8581 15.1944 34.5621 14.8144 35.3296 14.6583C36.0971 14.5023 36.8937 14.5774 37.6185 14.874C38.3433 15.1707 38.9639 15.6756 39.4019 16.3249C39.8398 16.9742 40.0753 17.7388 40.0787 18.522C40.081 19.0422 39.9808 19.5578 39.7837 20.0393C39.5867 20.5207 39.2967 20.9586 38.9304 21.328C38.5641 21.6974 38.1285 21.991 37.6487 22.192C37.1689 22.393 36.6542 22.4975 36.134 22.4995Z" fill="#27AE60"/>
</g>
<defs>
<clipPath id="clip0_4266_10715">
<rect width="154.968" height="30" fill="white"/>
</clipPath>
</defs>
</svg>
